# xmcd
#
# Track frame offsets: 
#        150
#        13337
#        26565
#        41872
#        55115
#        68417
#        83360
#        94840
#        107575
#        122495
#        147897
#        163390
#        181240
#        192900
#        208210
#        227515
#
# Disc length: 3249 seconds
#
# Revision: 0
# Processed by: cddbd v1.4PL0 Copyright (c) Steve Scherf et al.
# Submitted via: ExactAudioCopy v0.90b4
#
DISCID=d30caf10
DTITLE=Billie Holiday - Ultimate Legends
DYEAR=1998
DGENRE=Blues
TTITLE0=Summertime
TTITLE1=God Bless The Child
TTITLE2=Don't Explain
TTITLE3=My Man
TTITLE4=Yesterdays
TTITLE5=Lover Come Back To Me
TTITLE6=I Hear Music
TTITLE7=I Gotta Right To Sing The Blues
TTITLE8=Ain't Nobody's Business
TTITLE9=One For Me Baby
TTITLE10=I Cover The Waterfront
TTITLE11=Comes Love
TTITLE12=Love Me Or Leave Me
TTITLE13=Stormy Blues
TTITLE14=Please Don't talk About Me When I'm Gone
TTITLE15=These Foolish Things
EXTD=
EXTT0=
EXTT1=
EXTT2=
EXTT3=
EXTT4=
EXTT5=
EXTT6=
EXTT7=
EXTT8=
EXTT9=
EXTT10=
EXTT11=
EXTT12=
EXTT13=
EXTT14=
EXTT15=
PLAYORDER=
